<?xml version="1.0" encoding="UTF-8" standalone="no"?>
<!-- Created with Inkscape (http://www.inkscape.org/) -->

<svg
   version="1.1"
   id="svg884"
   width="150"
   height="150"
   viewBox="0 0 150 150"
   sodipodi:docname="ext-logo.svg"
   inkscape:version="1.1.2 (0a00cf5339, 2022-02-04)"
   xmlns:inkscape="http://www.inkscape.org/namespaces/inkscape"
   xmlns:sodipodi="http://sodipodi.sourceforge.net/DTD/sodipodi-0.dtd"
   xmlns="http://www.w3.org/2000/svg"
   xmlns:svg="http://www.w3.org/2000/svg">
  <defs
     id="defs888" />
  <sodipodi:namedview
     id="namedview886"
     pagecolor="#ffffff"
     bordercolor="#666666"
     borderopacity="1.0"
     inkscape:pageshadow="2"
     inkscape:pageopacity="0.0"
     inkscape:pagecheckerboard="0"
     showgrid="false"
     inkscape:zoom="2.5079499"
     inkscape:cx="73.765429"
     inkscape:cy="61.205369"
     inkscape:window-width="1920"
     inkscape:window-height="1001"
     inkscape:window-x="0"
     inkscape:window-y="0"
     inkscape:window-maximized="1"
     inkscape:current-layer="g890"
     showguides="false">
    <sodipodi:guide
       position="741.19013,234.13423"
       orientation="1,0"
       id="guide13443" />
  </sodipodi:namedview>
  <g
     inkscape:groupmode="layer"
     inkscape:label="Image"
     id="g890">
    <g
       id="g5127"
       transform="matrix(0.60841277,0,0,0.60841346,24.713416,-5.349871)"
       style="fill:#d4aa00">
      <path
         id="path5133"
         style="fill:#d4aa00"
         d="M 83.27351,8.80873 C 73.09566,11.14542 66.916,20.8008 59.51817,27.42162 45.10264,42.88837 28.20961,56.78925 18.20822,75.74252 c -6.2794,11.72987 -0.80166,25.36388 7.01477,34.83956 11.76875,15.73113 27.01955,28.40476 39.52463,43.46265 -1.38908,7.85877 -12.52679,12.35451 -16.07961,20.26815 -11.62597,16.19652 -12.91353,40.62867 1.23719,55.75575 16.46191,18.00771 49.47813,21.18705 66.57099,2.07771 16.50464,-17.80826 13.48853,-47.12788 -2.34861,-64.35285 -6.77921,-7.41966 -9.02154,-12.01539 -9.51554,-14.79146 -0.53928,-3.03047 1.00489,-3.89249 1.00489,-3.89249 0,0 6.21132,-4.70262 7.97436,-6.6451 12.94782,-13.7076 27.8244,-26.62177 35.64566,-44.15189 C 155.43564,83.95832 146.30998,69.13823 137.17754,58.46596 123.98844,42.93578 109.32609,28.71166 94.77895,14.47564 91.54333,11.73198 87.80582,8.54281 83.27351,8.80873 Z m 0.70508,29.01758 c 9.182,1.71419 14.40399,10.78746 21.04136,16.6139 8.42499,9.46568 19.4867,17.71158 23.71027,30.08339 1.95317,11.51669 -8.46839,19.80714 -15.17976,27.62072 -9.00509,8.66902 -16.98739,18.51002 -26.66227,26.42003 C 76.88835,140.85936 71.63691,127.83648 64.4939,122.55784 55.62286,112.87153 44.70889,104.40473 38.91711,92.36315 34.8969,81.4501 45.22426,72.69921 51.73073,65.41981 61.22929,56.54751 69.40406,45.92624 80.33468,38.76121 l 1.8548,-0.69161 z m -22.58398,121.3418 c -3.87172,3.27053 -11.30255,10.44422 -12.18212,12.48711 4.24612,-3.95539 8.5492,-7.96362 12.18212,-12.48711 z m 47.83398,2.77734 c 2.78492,3.82117 13.9945,13.67697 5.02922,4.68826 -1.67334,-1.56556 -3.29912,-3.18456 -5.02922,-4.68826 z m -24.45312,6.77734 c 6.83658,3.02918 12.12515,9.47597 16.68221,15.38088 7.25906,9.47139 9.79603,24.86337 -0.16696,33.46588 -11.66597,11.55573 -33.67384,7.12248 -39.8331,-8.13851 -5.05048,-10.27814 -0.08354,-22.60998 8.49563,-29.26293 5.63276,-5.43293 0.57444,-1.91674 1.46591,-2.4523 3.88424,-3.61581 7.97098,-7.87786 13.35631,-8.99302 z m 1.82422,0.5918 c 1.55902,3.05431 7.88728,7.08236 2.10351,1.77734 l -1.55211,-1.35849 z m -47.60938,28.08594 c -1.13878,6.48248 1.23218,7.75411 0,0 z m 89.97461,0.61523 c -1.14112,4.16235 0.98875,5.75093 0.17773,0.40235 z"
         sodipodi:nodetypes="cccccccccsccccccccccccccccccccccccccccccccccccccc" />
    </g>
    <g
       id="g2670"
       transform="translate(315.73105,23.883036)"
       style="fill:#2b1100" />
    <g
       aria-label="هٔ"
       id="text14482"
       style="font-size:40px;line-height:1.25;font-family:AzarMehr-FD-VF;-inkscape-font-specification:AzarMehr-FD-VF;word-spacing:0px"
       transform="matrix(1.0993779,0,0,1.0993779,78.334941,74.884311)">
      <path
         style="font-size:40px;line-height:1.25;font-family:AzarMehr-FD-VF;-inkscape-font-specification:AzarMehr-FD-VF;word-spacing:0px;fill:none;stroke:#d4aa00;stroke-width:8;stroke-linecap:round;stroke-linejoin:round;stroke-miterlimit:4;stroke-dasharray:none;stroke-opacity:1;paint-order:markers stroke fill"
         d="M -26.687634,15.068221 -54.819422,28.514797 -62.705853,9.8445389"
         id="path27454-56-2"
         sodipodi:nodetypes="ccc" />
      <path
         style="font-size:40px;line-height:1.25;font-family:AzarMehr-FD-VF;-inkscape-font-specification:AzarMehr-FD-VF;word-spacing:0px;fill:none;stroke:#d4aa00;stroke-width:8;stroke-linecap:round;stroke-linejoin:round;stroke-miterlimit:4;stroke-dasharray:none;stroke-opacity:1;paint-order:markers stroke fill"
         d="M 21.130703,13.292131 49.262491,26.738707 57.148922,8.0684485"
         id="path27454-56-2-1"
         sodipodi:nodetypes="ccc" />
      <path
         style="font-size:40px;line-height:1.25;font-family:AzarMehr-FD-VF;-inkscape-font-specification:AzarMehr-FD-VF;word-spacing:0px;fill:none;stroke:#d4aa00;stroke-width:8;stroke-linecap:round;stroke-linejoin:round;stroke-miterlimit:4;stroke-dasharray:none;stroke-opacity:1;paint-order:markers stroke fill"
         d="m -32.936036,32.431633 -15.037235,7.482803 21.782527,24.411198"
         id="path27454-5"
         sodipodi:nodetypes="ccc" />
      <path
         style="font-size:40px;line-height:1.25;font-family:AzarMehr-FD-VF;-inkscape-font-specification:AzarMehr-FD-VF;word-spacing:0px;fill:none;stroke:#d4aa00;stroke-width:8;stroke-linecap:round;stroke-linejoin:round;stroke-miterlimit:4;stroke-dasharray:none;stroke-opacity:1;paint-order:markers stroke fill"
         d="M 29.397886,32.060317 44.119821,38.507004 25.715998,63.545236"
         id="path27454-5-3"
         sodipodi:nodetypes="ccc" />
      <path
         style="fill:none;stroke:#d4aa00;stroke-width:8;stroke-linecap:round;stroke-linejoin:round;stroke-miterlimit:4;stroke-dasharray:none;stroke-opacity:1;paint-order:markers stroke fill"
         d="M -34.13745,1.3402193 -46.493,7.1579398 -54.351412,-9.5242059"
         id="path27456"
         sodipodi:nodetypes="ccc" />
      <path
         style="font-size:40px;line-height:1.25;font-family:AzarMehr-FD-VF;-inkscape-font-specification:AzarMehr-FD-VF;word-spacing:0px;fill:none;stroke:#d4aa00;stroke-width:8;stroke-linecap:round;stroke-linejoin:round;stroke-miterlimit:4;stroke-dasharray:none;stroke-opacity:1;paint-order:markers stroke fill"
         d="m 29.124726,3.2175601 12.35555,5.8177201 7.858412,-16.6821451"
         id="path27456-2"
         sodipodi:nodetypes="ccc" />
      <path
         style="font-size:40px;line-height:1.25;font-family:AzarMehr-FD-VF;-inkscape-font-specification:AzarMehr-FD-VF;word-spacing:0px;fill:none;stroke:#d4aa00;stroke-width:8;stroke-linecap:round;stroke-linejoin:round;stroke-miterlimit:4;stroke-dasharray:none;stroke-opacity:1;paint-order:markers stroke fill"
         d="m -8.3234872,-33.999127 v 0"
         id="path27456-2-7"
         sodipodi:nodetypes="cc" />
      <path
         style="font-size:40px;line-height:1.25;font-family:AzarMehr-FD-VF;-inkscape-font-specification:AzarMehr-FD-VF;word-spacing:0px;fill:none;stroke:#d4aa00;stroke-width:8;stroke-linecap:round;stroke-linejoin:round;stroke-miterlimit:4;stroke-dasharray:none;stroke-opacity:1;paint-order:markers stroke fill"
         d="m 2.8503038,-34.864501 v 0"
         id="path27456-2-7-0"
         sodipodi:nodetypes="cc" />
    </g>
  </g>
</svg>
